# xmcd
#
# Track frame offsets:
#	150
#	14527
#	34935
#	51142
#	63130
#	92637
#	108300
#	118360
#	132287
#	146900
#
# Disc length: 2168
#
# Revision: 4
# Processed by: cddbd v1.5.1PL0 Copyright (c) Steve Scherf et al.
# Submitted via: CD-DA_X-Tractor v0.24
# Normalized: r3:TSWAP
#
DISCID=8f08760a
DTITLE=Various Artist - NASCAR - Runnin' Wide Open
DYEAR=1900
DGENRE=
TTITLE0=T. Graham Brown - Dedicated Nascar Fans
TTITLE1=Billy Ray Cyrus - The Fastest Horse In A One Horse Town
TTITLE2=Colin Brown - The Wall
TTITLE3=Ken Mellons - Fuel To The Fire
TTITLE4=Jeff Foxworthy - You Could Be  A NASAR Fan If...
TTITLE5=Ricky Van Shelton - Junk Cars
TTITLE6=Sammy Kershaw - Racing With My Heart
TTITLE7=Joe Diffie - Runnin' Wide Open
TTITLE8=Rick Trevino - Cadillac Ranch
TTITLE9=Kyle Petty - Oh King Richard
EXTD=
EXTT0=
EXTT1=
EXTT2=
EXTT3=
EXTT4=
EXTT5=
EXTT6=
EXTT7=
EXTT8=
EXTT9=
PLAYORDER=
